<mxfile host="app.diagrams.net" agent="Mozilla/5.0 (Windows NT 10.0; Win64; x64) AppleWebKit/537.36 (KHTML, like Gecko) Chrome/130.0.0.0 Safari/537.36" version="24.8.1">
  <diagram name="Page-1" id="slL149lNCCZ4g7jYRxXO">
    <mxGraphModel dx="1050" dy="609" grid="1" gridSize="10" guides="1" tooltips="1" connect="1" arrows="1" fold="1" page="1" pageScale="1" pageWidth="827" pageHeight="1169" math="0" shadow="0">
      <root>
        <mxCell id="0" />
        <mxCell id="1" parent="0" />
        <mxCell id="Tt5UD-2mMPS8oXodWzRy-1" value="&lt;font style=&quot;font-size: 16px;&quot;&gt;User&lt;/font&gt;" style="rounded=0;whiteSpace=wrap;html=1;" vertex="1" parent="1">
          <mxGeometry x="80" y="60" width="120" height="60" as="geometry" />
        </mxCell>
        <mxCell id="Tt5UD-2mMPS8oXodWzRy-4" value="&lt;font style=&quot;font-size: 14px;&quot;&gt;Auth Service&lt;/font&gt;" style="ellipse;whiteSpace=wrap;html=1;aspect=fixed;" vertex="1" parent="1">
          <mxGeometry x="400" y="159" width="160" height="160" as="geometry" />
        </mxCell>
        <mxCell id="Tt5UD-2mMPS8oXodWzRy-5" value="&lt;font style=&quot;font-size: 14px;&quot;&gt;Database Service&lt;/font&gt;" style="ellipse;whiteSpace=wrap;html=1;aspect=fixed;" vertex="1" parent="1">
          <mxGeometry x="400" y="359" width="160" height="160" as="geometry" />
        </mxCell>
        <mxCell id="Tt5UD-2mMPS8oXodWzRy-6" value="&lt;font style=&quot;font-size: 14px;&quot;&gt;auth&lt;/font&gt;" style="shape=partialRectangle;whiteSpace=wrap;html=1;left=0;right=0;fillColor=none;" vertex="1" parent="1">
          <mxGeometry x="651" y="209" width="120" height="60" as="geometry" />
        </mxCell>
        <mxCell id="Tt5UD-2mMPS8oXodWzRy-7" value="&lt;font style=&quot;font-size: 14px;&quot;&gt;Storage Service&lt;/font&gt;" style="ellipse;whiteSpace=wrap;html=1;aspect=fixed;" vertex="1" parent="1">
          <mxGeometry x="400" y="559" width="160" height="160" as="geometry" />
        </mxCell>
        <mxCell id="Tt5UD-2mMPS8oXodWzRy-8" value="&lt;font style=&quot;font-size: 14px;&quot;&gt;db tables&lt;/font&gt;" style="shape=partialRectangle;whiteSpace=wrap;html=1;left=0;right=0;fillColor=none;" vertex="1" parent="1">
          <mxGeometry x="650" y="409" width="120" height="60" as="geometry" />
        </mxCell>
        <mxCell id="Tt5UD-2mMPS8oXodWzRy-9" value="&lt;font style=&quot;font-size: 14px;&quot;&gt;storage meta data&lt;/font&gt;" style="shape=partialRectangle;whiteSpace=wrap;html=1;left=0;right=0;fillColor=none;" vertex="1" parent="1">
          <mxGeometry x="651" y="609" width="120" height="60" as="geometry" />
        </mxCell>
        <mxCell id="Tt5UD-2mMPS8oXodWzRy-10" value="&lt;font style=&quot;font-size: 16px;&quot;&gt;Admin&lt;/font&gt;" style="rounded=0;whiteSpace=wrap;html=1;" vertex="1" parent="1">
          <mxGeometry x="160" y="841" width="120" height="60" as="geometry" />
        </mxCell>
        <mxCell id="Tt5UD-2mMPS8oXodWzRy-18" value="" style="edgeStyle=segmentEdgeStyle;endArrow=classic;html=1;curved=0;rounded=0;endSize=8;startSize=8;exitX=0;exitY=0.381;exitDx=0;exitDy=0;exitPerimeter=0;entryX=0.836;entryY=1.01;entryDx=0;entryDy=0;entryPerimeter=0;" edge="1" parent="1" source="Tt5UD-2mMPS8oXodWzRy-4" target="Tt5UD-2mMPS8oXodWzRy-1">
          <mxGeometry width="50" height="50" relative="1" as="geometry">
            <mxPoint x="120" y="170" as="sourcePoint" />
            <mxPoint x="170" y="140" as="targetPoint" />
            <Array as="points">
              <mxPoint x="180" y="220" />
              <mxPoint x="180" y="121" />
            </Array>
          </mxGeometry>
        </mxCell>
        <mxCell id="Tt5UD-2mMPS8oXodWzRy-21" value="" style="edgeStyle=segmentEdgeStyle;endArrow=classic;html=1;curved=0;rounded=0;endSize=8;startSize=8;entryX=0.053;entryY=0.255;entryDx=0;entryDy=0;entryPerimeter=0;exitX=0.577;exitY=1.048;exitDx=0;exitDy=0;exitPerimeter=0;" edge="1" parent="1" source="Tt5UD-2mMPS8oXodWzRy-1" target="Tt5UD-2mMPS8oXodWzRy-5">
          <mxGeometry width="50" height="50" relative="1" as="geometry">
            <mxPoint x="140" y="160" as="sourcePoint" />
            <mxPoint x="290" y="439" as="targetPoint" />
            <Array as="points">
              <mxPoint x="149" y="160" />
              <mxPoint x="150" y="160" />
              <mxPoint x="150" y="400" />
            </Array>
          </mxGeometry>
        </mxCell>
        <mxCell id="Tt5UD-2mMPS8oXodWzRy-22" value="" style="edgeStyle=segmentEdgeStyle;endArrow=classic;html=1;curved=0;rounded=0;endSize=8;startSize=8;exitX=0;exitY=0.381;exitDx=0;exitDy=0;exitPerimeter=0;entryX=0.495;entryY=1.033;entryDx=0;entryDy=0;entryPerimeter=0;" edge="1" parent="1" source="Tt5UD-2mMPS8oXodWzRy-5" target="Tt5UD-2mMPS8oXodWzRy-1">
          <mxGeometry width="50" height="50" relative="1" as="geometry">
            <mxPoint x="80" y="180" as="sourcePoint" />
            <mxPoint x="132" y="140" as="targetPoint" />
            <Array as="points">
              <mxPoint x="140" y="420" />
              <mxPoint x="140" y="140" />
              <mxPoint x="139" y="140" />
            </Array>
          </mxGeometry>
        </mxCell>
        <mxCell id="Tt5UD-2mMPS8oXodWzRy-25" value="" style="edgeStyle=segmentEdgeStyle;endArrow=classic;html=1;curved=0;rounded=0;endSize=8;startSize=8;exitX=0.909;exitY=1.046;exitDx=0;exitDy=0;exitPerimeter=0;" edge="1" parent="1" source="Tt5UD-2mMPS8oXodWzRy-1" target="Tt5UD-2mMPS8oXodWzRy-4">
          <mxGeometry width="50" height="50" relative="1" as="geometry">
            <mxPoint x="189" y="120" as="sourcePoint" />
            <mxPoint x="300" y="170" as="targetPoint" />
            <Array as="points">
              <mxPoint x="189" y="200" />
            </Array>
          </mxGeometry>
        </mxCell>
        <mxCell id="Tt5UD-2mMPS8oXodWzRy-26" value="" style="edgeStyle=segmentEdgeStyle;endArrow=classic;html=1;curved=0;rounded=0;endSize=8;startSize=8;exitX=0.25;exitY=1;exitDx=0;exitDy=0;entryX=0.063;entryY=0.256;entryDx=0;entryDy=0;entryPerimeter=0;" edge="1" parent="1" source="Tt5UD-2mMPS8oXodWzRy-1" target="Tt5UD-2mMPS8oXodWzRy-7">
          <mxGeometry width="50" height="50" relative="1" as="geometry">
            <mxPoint x="40" y="430" as="sourcePoint" />
            <mxPoint x="90" y="380" as="targetPoint" />
            <Array as="points">
              <mxPoint x="110" y="600" />
            </Array>
          </mxGeometry>
        </mxCell>
        <mxCell id="Tt5UD-2mMPS8oXodWzRy-27" value="" style="edgeStyle=segmentEdgeStyle;endArrow=classic;html=1;curved=0;rounded=0;endSize=8;startSize=8;entryX=0.147;entryY=1.022;entryDx=0;entryDy=0;entryPerimeter=0;exitX=0;exitY=0.381;exitDx=0;exitDy=0;exitPerimeter=0;" edge="1" parent="1" source="Tt5UD-2mMPS8oXodWzRy-7" target="Tt5UD-2mMPS8oXodWzRy-1">
          <mxGeometry width="50" height="50" relative="1" as="geometry">
            <mxPoint x="98" y="700" as="sourcePoint" />
            <mxPoint x="70" y="300" as="targetPoint" />
            <Array as="points">
              <mxPoint x="98" y="620" />
            </Array>
          </mxGeometry>
        </mxCell>
        <mxCell id="Tt5UD-2mMPS8oXodWzRy-29" value="" style="edgeStyle=segmentEdgeStyle;endArrow=classic;html=1;curved=0;rounded=0;endSize=8;startSize=8;exitX=0.833;exitY=0;exitDx=0;exitDy=0;exitPerimeter=0;entryX=0.021;entryY=0.632;entryDx=0;entryDy=0;entryPerimeter=0;" edge="1" parent="1" source="Tt5UD-2mMPS8oXodWzRy-10" target="Tt5UD-2mMPS8oXodWzRy-7">
          <mxGeometry width="50" height="50" relative="1" as="geometry">
            <mxPoint x="270" y="810" as="sourcePoint" />
            <mxPoint x="290" y="730" as="targetPoint" />
            <Array as="points">
              <mxPoint x="260" y="660" />
            </Array>
          </mxGeometry>
        </mxCell>
        <mxCell id="Tt5UD-2mMPS8oXodWzRy-30" value="" style="edgeStyle=segmentEdgeStyle;endArrow=classic;html=1;curved=0;rounded=0;endSize=8;startSize=8;exitX=0.052;exitY=0.756;exitDx=0;exitDy=0;exitPerimeter=0;entryX=0.917;entryY=0;entryDx=0;entryDy=0;entryPerimeter=0;" edge="1" parent="1" source="Tt5UD-2mMPS8oXodWzRy-7" target="Tt5UD-2mMPS8oXodWzRy-10">
          <mxGeometry width="50" height="50" relative="1" as="geometry">
            <mxPoint x="350" y="670" as="sourcePoint" />
            <mxPoint x="370" y="750" as="targetPoint" />
            <Array as="points">
              <mxPoint x="270" y="680" />
            </Array>
          </mxGeometry>
        </mxCell>
        <mxCell id="Tt5UD-2mMPS8oXodWzRy-31" value="" style="edgeStyle=segmentEdgeStyle;endArrow=classic;html=1;curved=0;rounded=0;endSize=8;startSize=8;exitX=0.5;exitY=0;exitDx=0;exitDy=0;entryX=0;entryY=0.631;entryDx=0;entryDy=0;entryPerimeter=0;" edge="1" parent="1" source="Tt5UD-2mMPS8oXodWzRy-10" target="Tt5UD-2mMPS8oXodWzRy-5">
          <mxGeometry width="50" height="50" relative="1" as="geometry">
            <mxPoint x="240" y="760" as="sourcePoint" />
            <mxPoint x="360" y="440" as="targetPoint" />
            <Array as="points">
              <mxPoint x="220" y="460" />
            </Array>
          </mxGeometry>
        </mxCell>
        <mxCell id="Tt5UD-2mMPS8oXodWzRy-32" value="" style="edgeStyle=segmentEdgeStyle;endArrow=classic;html=1;curved=0;rounded=0;endSize=8;startSize=8;entryX=0.583;entryY=0;entryDx=0;entryDy=0;entryPerimeter=0;" edge="1" parent="1" source="Tt5UD-2mMPS8oXodWzRy-5" target="Tt5UD-2mMPS8oXodWzRy-10">
          <mxGeometry width="50" height="50" relative="1" as="geometry">
            <mxPoint x="370" y="460" as="sourcePoint" />
            <mxPoint x="229" y="800" as="targetPoint" />
            <Array as="points">
              <mxPoint x="230" y="480" />
            </Array>
          </mxGeometry>
        </mxCell>
        <mxCell id="Tt5UD-2mMPS8oXodWzRy-33" value="" style="edgeStyle=segmentEdgeStyle;endArrow=classic;html=1;curved=0;rounded=0;endSize=8;startSize=8;entryX=0.25;entryY=0;entryDx=0;entryDy=0;" edge="1" parent="1" source="Tt5UD-2mMPS8oXodWzRy-4" target="Tt5UD-2mMPS8oXodWzRy-10">
          <mxGeometry width="50" height="50" relative="1" as="geometry">
            <mxPoint x="350" y="260" as="sourcePoint" />
            <mxPoint x="100" y="670" as="targetPoint" />
            <Array as="points">
              <mxPoint x="190" y="280" />
            </Array>
          </mxGeometry>
        </mxCell>
        <mxCell id="Tt5UD-2mMPS8oXodWzRy-34" value="" style="edgeStyle=segmentEdgeStyle;endArrow=classic;html=1;curved=0;rounded=0;endSize=8;startSize=8;exitX=0.167;exitY=0;exitDx=0;exitDy=0;exitPerimeter=0;entryX=0;entryY=0.631;entryDx=0;entryDy=0;entryPerimeter=0;" edge="1" parent="1" source="Tt5UD-2mMPS8oXodWzRy-10" target="Tt5UD-2mMPS8oXodWzRy-4">
          <mxGeometry width="50" height="50" relative="1" as="geometry">
            <mxPoint x="240" y="360" as="sourcePoint" />
            <mxPoint x="290" y="310" as="targetPoint" />
            <Array as="points">
              <mxPoint x="180" y="260" />
            </Array>
          </mxGeometry>
        </mxCell>
        <mxCell id="Tt5UD-2mMPS8oXodWzRy-35" value="" style="endArrow=classic;html=1;rounded=0;exitX=0.989;exitY=0.409;exitDx=0;exitDy=0;exitPerimeter=0;entryX=0;entryY=0.25;entryDx=0;entryDy=0;" edge="1" parent="1" source="Tt5UD-2mMPS8oXodWzRy-4" target="Tt5UD-2mMPS8oXodWzRy-6">
          <mxGeometry width="50" height="50" relative="1" as="geometry">
            <mxPoint x="520" y="140" as="sourcePoint" />
            <mxPoint x="620" y="224" as="targetPoint" />
          </mxGeometry>
        </mxCell>
        <mxCell id="Tt5UD-2mMPS8oXodWzRy-36" value="" style="endArrow=classic;html=1;rounded=0;entryX=1;entryY=0.569;entryDx=0;entryDy=0;entryPerimeter=0;exitX=-0.016;exitY=0.677;exitDx=0;exitDy=0;exitPerimeter=0;" edge="1" parent="1" source="Tt5UD-2mMPS8oXodWzRy-6" target="Tt5UD-2mMPS8oXodWzRy-4">
          <mxGeometry width="50" height="50" relative="1" as="geometry">
            <mxPoint x="640" y="250" as="sourcePoint" />
            <mxPoint x="670" y="300" as="targetPoint" />
          </mxGeometry>
        </mxCell>
        <mxCell id="Tt5UD-2mMPS8oXodWzRy-37" value="" style="endArrow=classic;html=1;rounded=0;entryX=0;entryY=0.25;entryDx=0;entryDy=0;exitX=1;exitY=0.406;exitDx=0;exitDy=0;exitPerimeter=0;" edge="1" parent="1" source="Tt5UD-2mMPS8oXodWzRy-5" target="Tt5UD-2mMPS8oXodWzRy-8">
          <mxGeometry width="50" height="50" relative="1" as="geometry">
            <mxPoint x="580" y="420" as="sourcePoint" />
            <mxPoint x="630" y="370" as="targetPoint" />
          </mxGeometry>
        </mxCell>
        <mxCell id="Tt5UD-2mMPS8oXodWzRy-38" value="" style="endArrow=classic;html=1;rounded=0;entryX=1;entryY=0.594;entryDx=0;entryDy=0;exitX=0;exitY=0.75;exitDx=0;exitDy=0;entryPerimeter=0;" edge="1" parent="1" source="Tt5UD-2mMPS8oXodWzRy-8" target="Tt5UD-2mMPS8oXodWzRy-5">
          <mxGeometry width="50" height="50" relative="1" as="geometry">
            <mxPoint x="580" y="490" as="sourcePoint" />
            <mxPoint x="660" y="490" as="targetPoint" />
          </mxGeometry>
        </mxCell>
        <mxCell id="Tt5UD-2mMPS8oXodWzRy-39" value="" style="endArrow=classic;html=1;rounded=0;entryX=0;entryY=0.25;entryDx=0;entryDy=0;exitX=1;exitY=0.406;exitDx=0;exitDy=0;exitPerimeter=0;" edge="1" parent="1" source="Tt5UD-2mMPS8oXodWzRy-7" target="Tt5UD-2mMPS8oXodWzRy-9">
          <mxGeometry width="50" height="50" relative="1" as="geometry">
            <mxPoint x="590" y="620" as="sourcePoint" />
            <mxPoint x="640" y="570" as="targetPoint" />
          </mxGeometry>
        </mxCell>
        <mxCell id="Tt5UD-2mMPS8oXodWzRy-40" value="" style="endArrow=classic;html=1;rounded=0;exitX=0;exitY=0.75;exitDx=0;exitDy=0;entryX=1.007;entryY=0.592;entryDx=0;entryDy=0;entryPerimeter=0;" edge="1" parent="1" source="Tt5UD-2mMPS8oXodWzRy-9" target="Tt5UD-2mMPS8oXodWzRy-7">
          <mxGeometry width="50" height="50" relative="1" as="geometry">
            <mxPoint x="580" y="720" as="sourcePoint" />
            <mxPoint x="570" y="650" as="targetPoint" />
          </mxGeometry>
        </mxCell>
        <mxCell id="Tt5UD-2mMPS8oXodWzRy-41" value="&lt;font style=&quot;font-size: 16px;&quot;&gt;Data Flow Diagram - Level 1&lt;/font&gt;" style="text;html=1;align=center;verticalAlign=middle;resizable=0;points=[];autosize=1;strokeColor=none;fillColor=none;" vertex="1" parent="1">
          <mxGeometry x="299" y="1010" width="230" height="30" as="geometry" />
        </mxCell>
        <mxCell id="Tt5UD-2mMPS8oXodWzRy-42" value="request auth services" style="text;html=1;align=center;verticalAlign=middle;resizable=0;points=[];autosize=1;strokeColor=none;fillColor=none;" vertex="1" parent="1">
          <mxGeometry x="226" y="177" width="140" height="30" as="geometry" />
        </mxCell>
        <mxCell id="Tt5UD-2mMPS8oXodWzRy-43" value="response" style="text;html=1;align=center;verticalAlign=middle;resizable=0;points=[];autosize=1;strokeColor=none;fillColor=none;" vertex="1" parent="1">
          <mxGeometry x="259" y="197" width="70" height="30" as="geometry" />
        </mxCell>
        <mxCell id="Tt5UD-2mMPS8oXodWzRy-44" value="request database services" style="text;html=1;align=center;verticalAlign=middle;resizable=0;points=[];autosize=1;strokeColor=none;fillColor=none;" vertex="1" parent="1">
          <mxGeometry x="214" y="377" width="160" height="30" as="geometry" />
        </mxCell>
        <mxCell id="Tt5UD-2mMPS8oXodWzRy-45" value="response" style="text;html=1;align=center;verticalAlign=middle;resizable=0;points=[];autosize=1;strokeColor=none;fillColor=none;" vertex="1" parent="1">
          <mxGeometry x="256" y="398" width="70" height="30" as="geometry" />
        </mxCell>
        <mxCell id="Tt5UD-2mMPS8oXodWzRy-46" value="request storage services" style="text;html=1;align=center;verticalAlign=middle;resizable=0;points=[];autosize=1;strokeColor=none;fillColor=none;" vertex="1" parent="1">
          <mxGeometry x="236" y="577" width="150" height="30" as="geometry" />
        </mxCell>
        <mxCell id="Tt5UD-2mMPS8oXodWzRy-47" value="response" style="text;html=1;align=center;verticalAlign=middle;resizable=0;points=[];autosize=1;strokeColor=none;fillColor=none;" vertex="1" parent="1">
          <mxGeometry x="275" y="597" width="70" height="30" as="geometry" />
        </mxCell>
        <mxCell id="Tt5UD-2mMPS8oXodWzRy-50" value="request admin auth services" style="text;html=1;align=center;verticalAlign=middle;resizable=0;points=[];autosize=1;strokeColor=none;fillColor=none;" vertex="1" parent="1">
          <mxGeometry x="215" y="237" width="170" height="30" as="geometry" />
        </mxCell>
        <mxCell id="Tt5UD-2mMPS8oXodWzRy-52" value="response" style="text;html=1;align=center;verticalAlign=middle;resizable=0;points=[];autosize=1;strokeColor=none;fillColor=none;" vertex="1" parent="1">
          <mxGeometry x="262" y="258" width="70" height="30" as="geometry" />
        </mxCell>
        <mxCell id="Tt5UD-2mMPS8oXodWzRy-53" value="request admin database services" style="text;html=1;align=center;verticalAlign=middle;resizable=0;points=[];autosize=1;strokeColor=none;fillColor=none;" vertex="1" parent="1">
          <mxGeometry x="206" y="436" width="200" height="30" as="geometry" />
        </mxCell>
        <mxCell id="Tt5UD-2mMPS8oXodWzRy-54" value="response" style="text;html=1;align=center;verticalAlign=middle;resizable=0;points=[];autosize=1;strokeColor=none;fillColor=none;" vertex="1" parent="1">
          <mxGeometry x="259" y="458" width="70" height="30" as="geometry" />
        </mxCell>
        <mxCell id="Tt5UD-2mMPS8oXodWzRy-55" value="request admin storage services" style="text;html=1;align=center;verticalAlign=middle;resizable=0;points=[];autosize=1;strokeColor=none;fillColor=none;" vertex="1" parent="1">
          <mxGeometry x="220" y="636" width="190" height="30" as="geometry" />
        </mxCell>
        <mxCell id="Tt5UD-2mMPS8oXodWzRy-56" value="response" style="text;html=1;align=center;verticalAlign=middle;resizable=0;points=[];autosize=1;strokeColor=none;fillColor=none;" vertex="1" parent="1">
          <mxGeometry x="296" y="657" width="70" height="30" as="geometry" />
        </mxCell>
        <mxCell id="Tt5UD-2mMPS8oXodWzRy-57" value="response" style="text;html=1;align=center;verticalAlign=middle;resizable=0;points=[];autosize=1;strokeColor=none;fillColor=none;" vertex="1" parent="1">
          <mxGeometry x="570" y="241" width="70" height="30" as="geometry" />
        </mxCell>
        <mxCell id="Tt5UD-2mMPS8oXodWzRy-58" value="response" style="text;html=1;align=center;verticalAlign=middle;resizable=0;points=[];autosize=1;strokeColor=none;fillColor=none;" vertex="1" parent="1">
          <mxGeometry x="566" y="445" width="70" height="30" as="geometry" />
        </mxCell>
        <mxCell id="Tt5UD-2mMPS8oXodWzRy-59" value="response" style="text;html=1;align=center;verticalAlign=middle;resizable=0;points=[];autosize=1;strokeColor=none;fillColor=none;" vertex="1" parent="1">
          <mxGeometry x="564" y="645" width="70" height="30" as="geometry" />
        </mxCell>
        <mxCell id="Tt5UD-2mMPS8oXodWzRy-60" value="manage users" style="text;html=1;align=center;verticalAlign=middle;resizable=0;points=[];autosize=1;strokeColor=none;fillColor=none;" vertex="1" parent="1">
          <mxGeometry x="552" y="199" width="100" height="30" as="geometry" />
        </mxCell>
        <mxCell id="Tt5UD-2mMPS8oXodWzRy-61" value="manage data" style="text;html=1;align=center;verticalAlign=middle;resizable=0;points=[];autosize=1;strokeColor=none;fillColor=none;" vertex="1" parent="1">
          <mxGeometry x="554" y="398" width="90" height="30" as="geometry" />
        </mxCell>
        <mxCell id="Tt5UD-2mMPS8oXodWzRy-62" value="manage objects" style="text;html=1;align=center;verticalAlign=middle;resizable=0;points=[];autosize=1;strokeColor=none;fillColor=none;" vertex="1" parent="1">
          <mxGeometry x="548" y="601" width="110" height="30" as="geometry" />
        </mxCell>
      </root>
    </mxGraphModel>
  </diagram>
</mxfile>
